<?xml version="1.0" encoding="UTF-8" standalone="no"?>
<!-- Created with Inkscape (http://www.inkscape.org/) -->
<svg version="1.1" id="svg1" width="386.23309" height="475.50949" viewBox="0 0 386.23309 475.50949" sodipodi:docname="ssuwat.svg" inkscape:version="1.3.2 (091e20ef0f, 2023-11-25, custom)" xmlns:inkscape="http://www.inkscape.org/namespaces/inkscape" xmlns:sodipodi="http://sodipodi.sourceforge.net/DTD/sodipodi-0.dtd" xmlns="http://www.w3.org/2000/svg" xmlns:svg="http://www.w3.org/2000/svg"><script xmlns=""/>
  <defs id="defs1"/>
  <sodipodi:namedview id="namedview1" pagecolor="#ffffff" bordercolor="#666666" borderopacity="1.0" inkscape:showpageshadow="2" inkscape:pageopacity="0.0" inkscape:pagecheckerboard="0" inkscape:deskcolor="#d1d1d1" inkscape:zoom="1.8581243" inkscape:cx="423.81449" inkscape:cy="546.78796" inkscape:window-width="1914" inkscape:window-height="2099" inkscape:window-x="4080" inkscape:window-y="145" inkscape:window-maximized="1" inkscape:current-layer="g1" showgrid="false"/>
  <g inkscape:groupmode="layer" inkscape:label="Image" id="g1" transform="translate(-250.94098,-303.37827)">
    <path id="path1" style="fill:#000000" d="m 444.04676,303.37827 c -0.008,0 -0.13432,0.39914 -0.14843,0.41992 -0.26163,0.32148 -0.78295,1.51587 -1.36524,3.36915 -3.59314,11.43592 -6.83186,21.45624 -11.15429,35.03515 -2.94578,9.24062 -5.80769,18.29405 -8.78907,27.42188 l -6.32617,19.36914 -0.16992,59.20898 c -0.0657,22.97389 0.016,31.85819 0.0801,41.57031 0.011,1.94415 -0.003,6.64132 0.0156,8.07227 0.0192,1.21878 -0.007,9.30776 0.0176,9.2832 0.008,-0.008 0.49279,-1.2577 0.51953,-1.31445 0.0363,-0.0281 0.0673,0.0326 0.10742,-0.0488 0.45677,-0.92631 4.25601,-10.4984 8.44336,-21.27148 5.4753,-14.31949 11.32324,-28.48963 17.1211,-42.67969 0.66569,-1.48756 0.98329,-2.01916 1.25195,-2.41602 0.13172,-0.18127 0.33088,-0.66542 0.4082,-0.67773 0.0773,0.0125 0.27462,0.49672 0.40625,0.67773 0.26867,0.39685 0.58625,0.92848 1.25196,2.41602 5.79787,14.19007 11.64579,28.36019 17.12109,42.67969 4.18737,10.77309 7.98854,20.34517 8.44531,21.27148 0.0395,0.0802 0.0697,0.0203 0.10547,0.0488 0.0267,0.0567 0.51119,1.30611 0.51953,1.31445 0.0246,0.0246 -0.002,-8.06735 0.0176,-9.28711 0.0186,-1.4099 0.005,-6.03214 0.0156,-7.93945 0.065,-9.6782 0.14791,-18.65411 0.082,-41.69922 l -0.16993,-59.20898 -6.32617,-19.36914 c -2.97014,-9.09343 -5.82142,-18.10795 -8.75781,-27.31836 -4.33215,-13.60856 -7.58376,-23.66901 -11.1875,-35.13867 -0.58229,-1.85328 -1.10348,-3.0476 -1.36523,-3.36915 -0.0141,-0.0208 -0.14049,-0.41992 -0.14844,-0.41992 -0.001,0 -0.008,0.0272 -0.01,0.0274 -10e-4,-1.8e-4 -0.0103,-0.0274 -0.0117,-0.0274 z m -98.99804,40.625 c -0.16451,0.0864 -0.46257,0.65952 -0.89258,1.48828 -0.0195,0.0322 -0.0413,0.0108 -0.0606,0.0488 -0.009,0.0184 -0.0351,0.10699 -0.0449,0.12696 -0.004,0.007 -0.004,0.004 -0.008,0.0117 -0.002,0.004 -0.0174,0.0582 -0.0195,0.0625 -2.64771,5.5039 -18.40315,64.80863 -19.05274,67.47657 l -1.3164,5.40625 -0.2793,1.09765 0.006,0.0293 -0.0703,0.28906 2.58593,11.98438 c 1.42237,6.59193 3.68891,17.49272 5.03711,24.22265 0.0948,0.47306 0.15635,0.69823 0.2461,1.14258 0.29358,1.48129 1.11014,5.35963 1.20898,5.92578 0.3273,1.87471 0.94315,3.71513 1.79688,5.74219 1.57329,4.24716 3.81824,7.93518 8.86328,15.47461 1.99457,2.98074 3.65748,5.58634 5.46875,8.36914 3.03806,4.68794 5.51786,8.6043 7.3125,11.54297 1.06052,1.73987 2.4942,3.99584 3.13867,5.15039 0.46417,0.83155 0.87655,1.42261 1.27539,1.98633 0.29195,0.46867 1.0294,1.76172 1.06055,1.76172 0.0914,0 0.31622,-0.24098 0.49804,-0.53516 0.32034,-0.51831 -0.62485,-22.32445 -1.65625,-42.85938 -0.28263,-5.89772 -0.62073,-12.19357 -0.91015,-16.8789 -0.17636,-2.89843 -0.38482,-7.93052 -0.53516,-9.90234 -0.1388,-1.82049 -0.47689,-4.72507 -0.73437,-7.35547 -0.007,-0.0708 -0.0166,-0.15776 -0.0234,-0.22852 -0.32674,-3.32264 -0.59146,-6.45727 -0.92578,-9.25781 -0.1157,-0.96914 -0.92136,-6.60288 -1.18946,-8.61719 -0.79012,-6.09638 -1.92124,-14.27226 -3.12109,-22.63086 -0.9362,-6.68659 -1.19954,-8.72003 -2.17383,-15.57031 -0.50615,-4.25775 -2.47401,-22.2192 -4.46484,-30.56836 -0.0787,-0.4827 -0.5564,-3.88863 -0.58594,-4.01563 -0.15848,-0.6813 -0.24832,-1.01724 -0.43359,-0.91992 z m 198.01758,0 c -0.18527,-0.0973 -0.27512,0.23861 -0.4336,0.91992 -0.0332,0.14257 -0.56347,3.91988 -0.6582,4.50782 -1.98521,8.56419 -3.94408,26.28574 -4.42578,30.32031 -0.9325,6.55894 -1.18143,8.48238 -2.08008,14.89844 -1.23447,8.59327 -2.38363,16.90884 -3.18945,23.13086 -0.26471,1.98976 -1.06497,7.58391 -1.17969,8.54492 -0.33426,2.79996 -0.59907,5.93374 -0.92578,9.25586 -0.007,0.0713 -0.0166,0.15913 -0.0234,0.23047 -0.2575,2.63047 -0.59557,5.53498 -0.73438,7.35547 -0.14947,1.96043 -0.35601,6.96841 -0.53125,9.8457 -0.2926,4.73025 -0.63613,11.08015 -0.92187,17.04883 -1.02904,20.50608 -1.96811,42.22884 -1.64844,42.74609 0.18182,0.29418 0.4047,0.53516 0.4961,0.53516 0.0312,0 0.77065,-1.29586 1.06445,-1.76758 0.39822,-0.56317 0.8106,-1.15131 1.27344,-1.98047 0.64446,-1.15455 2.07828,-3.41062 3.13867,-5.15039 1.80142,-2.94926 4.28927,-6.87996 7.33984,-11.58594 1.80308,-2.76993 3.45514,-5.36076 5.43946,-8.32617 5.04479,-7.53907 7.28985,-11.22571 8.86328,-15.47266 0.85401,-2.02821 1.46946,-3.86881 1.79687,-5.74414 0.0992,-0.56801 0.91762,-4.45671 1.21289,-5.94531 0.0883,-0.43726 0.14903,-0.65803 0.24219,-1.12305 1.3482,-6.72992 3.61474,-17.63073 5.03711,-24.22265 l 2.58594,-11.98438 -0.0703,-0.28906 0.006,-0.0293 -0.27929,-1.09765 -1.31641,-5.40625 c -0.64872,-2.66437 -16.35784,-61.79107 -19.03711,-67.43164 -0.004,-0.008 -0.0296,-0.10051 -0.0332,-0.10743 -0.006,-0.0122 -0.005,-0.007 -0.0117,-0.0195 -0.009,-0.0187 -0.0341,-0.10183 -0.043,-0.11914 -0.0182,-0.036 -0.0383,-0.0162 -0.0566,-0.0469 -0.43147,-0.83138 -0.73172,-1.40368 -0.89648,-1.49024 z m -150.67774,81.19922 c -0.22796,0 -0.59299,0.44207 -0.81055,0.98242 -0.12415,0.30836 -1.20761,3.68886 -1.56054,4.70117 -3.11644,8.25866 -8.63844,24.715 -12.76758,38.47461 l -1.20508,4.01758 2.1875,3.56055 c 3.10104,5.04996 17.35224,27.82295 19.08789,30.50195 0.50724,0.78295 0.92758,1.21851 1.24805,1.43555 0.0152,0.0185 0.30067,0.47821 0.31055,0.48828 0.66819,0.68123 0.74352,0.64292 0.53515,-0.2793 -0.16933,-0.74945 -5.09378,-83.88281 -7.02539,-83.88281 z m 103.33984,0 c -1.9316,0 -6.85606,83.13336 -7.02539,83.88281 -0.20837,0.92222 -0.13305,0.96053 0.53516,0.2793 0.01,-0.0101 0.29539,-0.46974 0.31055,-0.48828 0.32069,-0.21765 0.74113,-0.65311 1.24804,-1.43555 1.73565,-2.67899 15.98687,-25.452 19.08789,-30.50195 l 2.18555,-3.56055 -1.20508,-4.01758 c -4.13074,-13.76497 -9.65574,-30.23279 -12.77148,-38.48828 -0.35135,-1.00761 -1.43285,-4.38003 -1.55664,-4.6875 -0.21756,-0.54035 -0.58064,-0.98242 -0.8086,-0.98242 z m -244.77539,19.92969 -0.008,2.9707 -0.004,0.39844 c -1e-5,10e-4 0.002,0.0184 0.002,0.0195 l -0.002,0.60352 c -0.007,2.19468 1.10749,14.44582 2.47656,27.22656 1.36907,12.78074 2.90161,27.53212 3.40625,32.78125 0.55125,5.73388 0.83937,9.00415 1.43164,11.26367 0.003,0.0137 0.0246,0.23383 0.0273,0.24609 0.0831,0.36776 0.26305,0.72998 0.4043,1.10352 0.0371,0.0913 0.0681,0.20316 0.10742,0.29102 0.38391,0.92374 0.84225,1.77726 1.29492,2.15039 0.0908,0.0748 0.55208,0.39226 0.6543,0.47461 1.04713,0.99077 2.44231,2.01757 4.44141,3.51562 1.05051,0.78722 7.28382,5.03454 9.73828,6.76172 10.21135,7.20951 21.68653,15.15668 34.71289,24.07617 15.98467,10.96378 31.90527,21.85387 33.86719,23.27539 1.3586,0.98438 2.69349,1.79102 2.96679,1.79102 0.0184,0 0.0269,-0.006 0.0449,-0.006 3e-5,0 0.008,0.006 0.008,0.006 10e-4,0 -0.001,-0.006 0,-0.006 0.28192,0.006 0.16946,-0.41343 -0.33594,-1.33008 -0.11759,-0.24422 -0.18217,-0.44023 -0.34766,-0.7207 -0.28082,-0.38585 -0.55171,-0.78162 -0.83203,-1.16797 -2.45108,-3.76035 -8.38993,-12.26017 -23.69922,-34.10938 -2.36113,-3.36978 -2.9926,-4.31748 -5.17773,-7.4414 -19.50054,-28.88129 -38.6397,-58.11613 -59.08985,-85.97852 -0.94157,-1.41601 -2.34396,-3.29386 -3.69921,-5.05859 -0.42684,-0.57293 -0.83945,-1.16084 -1.26758,-1.73242 l -1.10742,-1.4043 v 0.0176 z m 386.19727,0 -1.10938,1.4043 c -0.45461,0.60693 -0.89254,1.23139 -1.3457,1.83984 -1.29414,1.68803 -2.63435,3.6037 -3.61328,4.94336 -20.40867,27.92904 -39.57657,57.17732 -59.14062,86.05078 -2.12137,3.1308 -2.79215,4.03638 -5.13282,7.37695 -15.33798,21.89017 -21.26987,30.37928 -23.71094,34.12696 -0.27619,0.38065 -0.54362,0.77022 -0.82031,1.15039 -0.16493,0.27954 -0.23026,0.47324 -0.34765,0.71679 -0.50866,0.92181 -0.61917,1.33954 -0.33594,1.33399 10e-4,4e-5 -0.001,0.006 0,0.006 2e-5,0 0.008,-0.006 0.008,-0.006 0.0174,-3.3e-4 0.0252,0.006 0.043,0.006 0.2733,0 1.60819,-0.80664 2.9668,-1.79102 1.94797,-1.41141 17.77881,-12.24176 33.62695,-23.11133 13.11825,-8.98096 24.63054,-16.95137 34.93555,-24.22656 2.4618,-1.73224 8.70519,-5.9866 9.75781,-6.77539 1.99921,-1.49814 3.39436,-2.52666 4.44141,-3.51758 0.10183,-0.082 0.56185,-0.39806 0.65234,-0.47265 0.45302,-0.37342 0.91252,-1.2275 1.29687,-2.15235 0.0364,-0.0813 0.0632,-0.18528 0.0977,-0.26953 0.14479,-0.38008 0.32943,-0.74861 0.41406,-1.12305 0.003,-0.0127 0.0243,-0.24157 0.0274,-0.25586 0.59022,-2.25943 0.87927,-5.5287 1.42968,-11.2539 0.50464,-5.24913 2.0372,-20.00052 3.40625,-32.78125 1.36907,-12.78073 2.48343,-25.03189 2.47657,-27.22656 l -0.002,-0.60352 c 0,-10e-4 0.002,-0.0184 0.002,-0.0195 l -0.004,-0.45508 -0.008,-2.91406 -0.0117,0.0156 z m -193.0957,33.4043 c -0.12423,0 -0.4175,0.49588 -0.83594,1.35742 -0.29352,0.59848 -0.70556,1.56099 -1.11328,2.50976 -0.17076,0.39659 -0.2969,0.65938 -0.48438,1.10742 -0.30641,0.73532 -0.7218,1.8469 -1.0664,2.70508 -3.86713,9.55791 -9.75781,25.60535 -11.9043,33.06641 l -1.45703,5.06836 6.41015,16.53125 c 3.52559,9.09222 7.1288,18.23457 8.00782,20.3164 0.87902,2.08184 1.90712,3.78707 2.28515,3.78907 0.0479,3e-4 0.11059,-0.0645 0.16211,-0.082 0.0509,0.0171 0.11278,0.0823 0.16016,0.082 0.37803,-0.002 1.40614,-1.70723 2.28516,-3.78907 0.879,-2.08182 4.48417,-11.22419 8.00976,-20.3164 l 6.41016,-16.53125 -1.45899,-5.06836 c -2.14133,-7.44314 -8.00692,-23.42219 -11.875,-32.99023 -0.35912,-0.89507 -0.78756,-2.04226 -1.10547,-2.80469 -0.16285,-0.38908 -0.26963,-0.61059 -0.41992,-0.96094 -0.43133,-1.00756 -0.86094,-2.00678 -1.16797,-2.63281 -0.41843,-0.86154 -0.71171,-1.35742 -0.83593,-1.35742 -3.5e-4,0 -0.002,0.004 -0.002,0.004 -4.3e-4,-10e-6 -0.003,-0.004 -0.004,-0.004 z m -104.45899,17.96484 c -0.0239,0 -0.0287,0.0697 -0.0508,0.0762 -0.005,-10e-4 -0.05,-0.0702 -0.0547,-0.0703 -0.0594,-6.9e-4 -0.10095,0.24463 -0.15234,0.3789 -0.0506,0.11149 -0.11417,0.17241 -0.14453,0.35938 -8.4e-4,0.005 -10e-4,0.0163 -0.002,0.0215 -0.0747,0.45596 -0.12305,1.07682 -0.12305,1.76368 0,0.21132 0.28402,1.85185 0.32617,2.28711 0.13283,1.43554 0.21667,2.68455 0.54102,4.87109 0.21439,1.44533 0.64457,3.78535 0.95898,5.68359 0.42838,2.68589 0.60206,3.63491 1.07031,6.34571 0.55567,3.14716 0.85464,4.68324 1.34375,7.23046 0.34499,1.77204 0.85325,4.93048 1.07032,5.76172 0.44047,1.68673 0.71946,3.06965 0.6582,3.20899 -0.12984,0.0381 -2.50068,-1.29829 -5.39649,-3.04688 -3.31785,-2.00343 -5.40983,-3.17035 -7.38476,-4.25195 -0.53367,-0.29432 -1.43043,-0.84633 -1.87891,-1.08008 -0.31493,-0.16333 -0.48527,-0.22525 -0.75586,-0.35742 -0.64592,-0.31755 -1.29243,-0.63427 -1.69726,-0.78125 -0.0521,-0.0186 -0.0534,1.9e-4 -0.10157,-0.0156 -0.44149,-0.14707 -0.80427,-0.23869 -0.90039,-0.14257 -0.006,0.006 0.006,0.0346 0,0.041 -0.003,0.003 -0.0224,-0.007 -0.0254,-0.004 -0.0184,0.0184 0.0415,0.14746 0.0293,0.17382 -0.37467,0.75531 1.13271,3.57752 13.23633,24.87305 6.63548,11.67472 9.72683,17.1777 12.60351,22.35156 2.71593,4.97106 4.98931,9.24624 6.71485,12.58203 0.87057,1.71946 1.86376,3.51385 2.88672,5.60547 0.15185,0.31049 0.16848,0.30026 0.31054,0.58985 l 4.19336,8.22851 1.43164,1.09961 c 0.45805,0.41396 0.92999,0.8089 1.55274,1.27539 3.96526,2.97033 9.10736,6.93063 13.91211,10.64844 4.61052,3.5654 7.74715,6.05411 10.42578,8.20703 1.24063,0.99611 3.65698,2.86954 4.18945,3.33203 1.90009,1.65036 3.80347,3 4.22852,3 6.1e-4,0 0.0111,-0.006 0.0117,-0.006 10e-4,3e-5 0.008,0.006 0.01,0.006 0.0541,0 1.12701,-0.62942 1.31445,-0.70898 1.17274,-0.4969 3.35675,-1.59276 6.67188,-3.53906 0.59195,-0.34754 1.06732,-0.60582 1.69727,-0.97266 0.16073,-0.0933 0.15631,-0.0774 0.31835,-0.17187 9.36707,-5.45799 12.84104,-7.36108 13.19141,-7.17579 l -4.35937,5.88868 c -0.20889,0.28218 -0.39563,0.57203 -0.60547,0.85742 -2.23742,3.03685 -4.51325,6.24104 -7.66602,10.875 -0.0173,0.0254 -0.0238,0.0353 -0.041,0.0605 -1.62073,2.37571 -3.10276,4.54514 -4.32422,6.45508 -0.1509,0.23187 -0.34019,0.52366 -0.48047,0.74219 -1.13762,1.79912 -1.9756,3.21456 -2.48047,4.19531 -0.0815,0.15839 -0.29178,0.48506 -0.35352,0.61719 -0.65492,1.40165 -0.97822,3.02756 -1.12695,5.25391 -0.009,0.1324 -0.0344,0.2211 -0.043,0.35937 -0.001,0.0182 0.009,0.13123 0.008,0.15039 -0.16951,3.64866 0.1923,9.29095 1.2461,20.85547 0.7275,7.98377 1.17586,13.8679 1.15039,14.68555 -0.10127,-0.0345 -0.20106,-0.0985 -0.49219,-0.60352 -0.50352,-0.87352 -1.66717,-3.81082 -3.13476,-7.76172 -2.49206,-6.82291 -5.63306,-15.88353 -8.6211,-24.75195 -2.59359,-7.76091 -4.98541,-15.12727 -6.10937,-19.22852 -0.20557,-0.75008 -0.34733,-0.94839 -0.51563,-1.48242 -0.25531,-1.02663 -0.29746,-1.61612 -0.79297,-2.28711 -0.45383,-0.8105 -0.99649,-1.27362 -1.91406,-1.81836 -1.62806,-0.96654 -2.4225,-1.3997 -3.99805,-2.33203 -2.95212,-1.78373 -6.91795,-4.11697 -13.75195,-8.1289 -4.52754,-2.65792 -7.14673,-4.08832 -11.01367,-6.31641 -5.54525,-3.1978 -11.41448,-6.61605 -15.23438,-8.73828 -0.47181,-0.26103 -0.93775,-0.52129 -1.38281,-0.76563 -2.93287,-1.6172 -5.19216,-2.82259 -6.76172,-3.60156 -0.24944,-0.12513 -0.34688,-0.15765 -0.56836,-0.26562 -0.93489,-0.44642 -2.40857,-1.22266 -2.61133,-1.22266 -0.0561,0 -0.0259,0.10848 -0.0527,0.14453 -10e-4,10e-4 -0.0281,-0.0129 -0.0293,-0.0117 -0.004,0.004 0.0211,0.0442 0.0176,0.0488 -0.0653,0.1609 0.0345,0.53376 0.45508,1.33008 1.34502,2.71178 6.46635,10.40614 19.85352,29.92578 7.87313,11.47971 14.33278,20.94861 19.81835,29.05273 0.32451,0.47996 0.63655,0.93927 0.95704,1.41407 4.94785,7.3187 8.90118,13.25039 12.25,18.35937 1.33157,2.03636 2.1805,3.39534 3.26757,5.0918 5.40315,8.40941 8.95178,14.333 11.18165,18.74414 0.10277,0.20062 0.14023,0.30531 0.23632,0.49609 1.03278,2.09458 1.85497,4.04408 1.77735,4.32032 -0.0326,0.0608 -0.71152,-0.42216 -1.10743,-0.66407 -0.3672,-0.21977 -0.51549,-0.25793 -1.17187,-0.72265 -1.28677,-0.92272 -2.98304,-2.21026 -4.85352,-3.70703 -4.33493,-3.46888 -7.60475,-5.95457 -9.85937,-7.52344 -2.02558,-1.44148 -3.11124,-2.04053 -3.36914,-1.84766 -0.003,0.003 -0.0264,-0.0127 -0.0293,-0.01 -2.3e-4,2.3e-4 0.002,0.004 0.002,0.004 -0.002,0.002 -0.012,-0.006 -0.0137,-0.004 -0.38262,0.38262 3.96245,6.26714 15.54492,21.04882 5.20967,6.64863 9.81219,12.76545 14.68946,19.36915 0.82677,1.12181 1.71849,2.25507 2.53125,3.36718 5.6636,7.74836 11.849,16.45522 19.9707,28.08789 l 1.93945,2.67383 c 5.30424,7.59359 9.32806,13.31768 10.01368,13.79102 l 0.17187,0.23828 c 0.002,0 0.0175,-0.0213 0.0195,-0.0215 0.002,1.9e-4 0.0158,0.0215 0.0176,0.0215 l 0.17188,-0.23828 c 0.68396,-0.4722 4.6939,-6.17564 9.97656,-13.73828 l 1.97851,-2.72657 c 8.12144,-11.63228 14.30347,-20.34171 19.9668,-28.08984 0.81837,-1.11979 1.71821,-2.25905 2.55078,-3.38867 4.8709,-6.59469 9.46821,-12.70473 14.67188,-19.34571 11.58247,-14.78166 15.92949,-20.6662 15.54687,-21.04882 -0.002,-0.002 -0.0136,0.006 -0.0156,0.004 -2.3e-4,-2.4e-4 0.002,-0.004 0.002,-0.004 -0.003,-0.003 -0.0294,0.0146 -0.0332,0.0117 -0.26196,-0.18762 -1.34709,0.41031 -3.36719,1.84766 -2.25468,1.56921 -5.52414,4.05394 -9.85742,7.52149 -1.87047,1.49677 -3.5648,2.78467 -4.85156,3.70703 -0.63997,0.45332 -0.77671,0.48411 -1.14258,0.70508 -0.4147,0.25535 -1.1025,0.74132 -1.13672,0.67968 -0.0771,-0.27782 0.7442,-2.22798 1.7793,-4.32617 0.0948,-0.18822 0.13305,-0.29051 0.23437,-0.48828 2.2486,-4.4482 5.8177,-10.40572 11.30469,-18.9375 1.03887,-1.61975 1.83599,-2.89825 3.09375,-4.82227 3.39956,-5.18745 7.40215,-11.19473 12.45703,-18.66992 0.20083,-0.29745 0.39525,-0.5853 0.59766,-0.88476 5.51948,-8.15601 12.06819,-17.75107 20.02148,-29.34766 13.3675,-19.49097 18.49504,-27.19489 19.84961,-29.91797 0.42586,-0.80451 0.52458,-1.17616 0.45898,-1.33789 -0.004,-0.005 0.0216,-0.0448 0.0176,-0.0488 -10e-4,-10e-4 -0.0279,0.0129 -0.0293,0.0117 -0.0268,-0.036 0.003,-0.14453 -0.0527,-0.14453 -0.20276,0 -1.67639,0.77622 -2.61133,1.22266 -0.22149,0.10799 -0.31891,0.14048 -0.56836,0.26562 -1.56553,0.77695 -3.81628,1.97889 -6.73828,3.58984 -0.46004,0.25254 -0.94293,0.5206 -1.43164,0.79102 -3.81575,2.12014 -9.67779,5.53384 -15.21094,8.72461 -3.86704,2.22821 -6.48613,3.65849 -11.01367,6.31641 -6.83399,4.01193 -10.79994,6.34519 -13.75195,8.1289 -1.57556,0.93233 -2.36998,1.36549 -3.99805,2.33203 -0.91838,0.54522 -1.46025,1.0101 -1.91406,1.82227 -0.4928,0.66817 -0.53662,1.25589 -0.78906,2.27539 -0.16901,0.5359 -0.31093,0.7362 -0.51758,1.49023 -1.09349,3.99005 -3.3932,11.08257 -5.90039,18.60157 -3.03873,9.03504 -6.2806,18.39376 -8.83203,25.3789 -1.4677,3.95082 -2.63125,6.8882 -3.13477,7.76172 -0.29113,0.50506 -0.39088,0.56883 -0.49219,0.60352 -0.0254,-0.81754 0.42484,-6.70179 1.15235,-14.68555 1.0546,-11.57329 1.41485,-17.21317 1.24414,-20.86133 -9.9e-4,-0.0184 0.009,-0.12701 0.008,-0.14453 -0.008,-0.13225 -0.0324,-0.21688 -0.041,-0.34375 -0.14808,-2.23459 -0.47069,-3.86501 -1.12695,-5.26953 -0.44403,-0.95028 -1.51469,-2.72274 -2.83594,-4.8125 -0.14027,-0.21854 -0.32958,-0.51032 -0.48047,-0.74219 -1.22295,-1.91249 -2.70698,-4.08559 -4.33007,-6.46484 -0.0145,-0.0214 -0.0206,-0.0293 -0.0352,-0.0508 -3.14119,-4.61694 -5.41153,-7.81315 -7.64062,-10.83985 -0.21833,-0.29701 -0.4116,-0.59902 -0.62891,-0.89257 l -4.35938,-5.88868 c 0.35668,-0.18043 3.83234,1.7236 13.18946,7.17579 0.17573,0.10239 0.17152,0.0845 0.3457,0.18554 0.62023,0.36123 1.08872,0.61662 1.67188,0.95899 3.25415,1.9105 5.33015,2.94528 6.54882,3.47461 0.21719,0.0944 1.37644,0.77343 1.43555,0.77343 0.002,0 0.0101,-0.006 0.0117,-0.006 6.3e-4,10e-6 0.0111,0.006 0.0117,0.006 0.42505,0 2.32647,-1.34964 4.22656,-3 0.5463,-0.47449 3.01004,-2.38409 4.29883,-3.41797 2.66155,-2.13741 5.71336,-4.55733 10.23242,-8.05273 4.83118,-3.73869 10.00817,-7.72802 13.99805,-10.7168 0.63305,-0.47421 1.11434,-0.8755 1.57812,-1.29687 l 1.4043,-1.07813 4.13477,-8.11523 c 0.16727,-0.34072 0.18998,-0.33281 0.37109,-0.70313 1.03151,-2.10913 2.03222,-3.91889 2.91015,-5.65234 1.73321,-3.34928 4.00253,-7.61674 6.72461,-12.59766 2.87524,-5.17117 5.95143,-10.64698 12.56836,-22.28906 12.11106,-21.30862 13.61543,-24.12201 13.23829,-24.875 -0.0122,-0.026 0.0475,-0.15366 0.0293,-0.17187 -0.003,-0.003 -0.0221,0.007 -0.0254,0.004 -0.006,-0.006 0.006,-0.035 0,-0.041 -0.0961,-0.0961 -0.45886,-0.004 -0.90039,0.14257 -0.0482,0.0158 -0.0495,-0.003 -0.10156,0.0156 -0.38083,0.13818 -0.99755,0.44329 -1.5918,0.73242 -0.30615,0.14793 -0.51327,0.22628 -0.87891,0.41602 -0.37498,0.19559 -1.1322,0.66465 -1.5664,0.90234 -2.00085,1.08797 -4.22968,2.33669 -7.67969,4.41992 -2.89582,1.74859 -5.26859,3.08503 -5.39844,3.04688 -0.0613,-0.13934 0.21774,-1.52226 0.65821,-3.20899 0.21272,-0.81461 0.71258,-3.92443 1.04882,-5.64648 0.50221,-2.60939 0.8152,-4.22384 1.38868,-7.47461 0.45306,-2.62675 0.61968,-3.53505 1.03515,-6.13672 0.31989,-1.92896 0.75527,-4.29815 0.97266,-5.76367 0.32851,-2.21464 0.41679,-3.48918 0.54883,-4.93359 0.0399,-0.41781 0.3164,-2.01908 0.3164,-2.22461 0,-0.65795 -0.0497,-1.23727 -0.11914,-1.6875 -0.0322,-0.22731 -0.0951,-0.33861 -0.15429,-0.46485 -0.0505,-0.12836 -0.0904,-0.37177 -0.14844,-0.37109 -0.005,6e-5 -0.0473,0.069 -0.0527,0.0703 -0.0221,-0.006 -0.0269,-0.0762 -0.0508,-0.0762 -0.28228,0 -1.32115,1.32621 -2.30859,2.94726 -0.98743,1.62105 -6.06671,9.05379 -11.28711,16.51563 -1.81362,2.59232 -3.33232,4.85939 -4.87891,7.1543 -0.47892,0.70523 -1.15999,1.68286 -1.57226,2.30664 -2.16977,3.26606 -3.7983,5.81959 -4.11914,6.54492 -0.30142,0.68139 -0.6829,1.98416 -1.05274,3.51953 -0.11609,0.42741 -0.19313,0.99469 -0.28906,1.44336 -0.24013,1.11028 -0.49389,2.22867 -0.66992,3.33594 -0.48203,3.03193 -1.03172,5.75358 -1.31055,6.65429 -0.0421,0.12702 -0.0952,0.37763 -0.13281,0.46485 -0.1747,0.35492 -1.99487,1.76396 -4.82227,3.80273 -0.54183,0.38493 -0.58212,0.43887 -1.22265,0.88867 -3.61368,2.56655 -8.63328,6.00757 -14.75977,10.09961 -8.36048,5.5842 -12.44603,8.39184 -15.93359,10.79297 -3.48833,2.30219 -6.02124,3.92813 -6.20703,3.92578 0.0304,-0.0753 0.024,-0.10683 0.0879,-0.2207 0.0623,-0.22782 1.2645,-1.8202 2.43945,-3.37109 0.66479,-0.8908 0.90148,-1.28526 1.88281,-2.54297 0.0242,-0.0311 0.0225,-0.0312 0.0469,-0.0625 5.28023,-6.72353 11.45411,-14.81564 16.63672,-21.875 l 4.65625,-6.3418 0.74414,-6.39258 c 0.43996,-3.78272 0.80293,-7.69262 1.20703,-11.67773 0.11402,-1.06135 0.19704,-1.90711 0.30664,-2.96875 0.28084,-2.86275 0.50527,-5.01738 0.7168,-7.44141 0.40016,-4.38352 0.62925,-7.55358 0.63867,-9.13672 -2.2e-4,-0.16003 0.0905,-1.07847 0.082,-1.16601 -0.002,-0.0243 -0.0131,-0.0177 -0.0156,-0.041 -0.002,-0.024 0.0122,-0.17832 0.01,-0.19922 -0.0312,-0.2714 -0.1187,-0.39124 -0.25586,-0.40429 -0.027,-0.0108 -0.0601,-0.0199 -0.0937,-0.0156 -0.0317,0.0113 -0.10719,0.1043 -0.14453,0.12696 -0.38131,0.171 -1.91293,2.37759 -3.39258,4.53906 -1.17247,1.69612 -2.01279,2.85048 -4.21875,6.20898 -8.7903,13.38298 -14.9854,23.52284 -19.0332,31.14844 -0.91972,1.73265 -1.79823,3.24524 -2.73242,4.90039 -1.62056,2.80306 -3.18355,5.29986 -4.14258,6.49805 -0.75243,0.91891 -1.47145,1.67429 -2.07813,2.17773 -0.0346,0.0276 -0.0581,0.0307 -0.0918,0.0566 -0.49462,0.39591 -0.86073,0.53999 -1.15821,0.56836 -0.15544,0.007 -0.31863,0.0273 -0.40039,-0.0781 -0.0154,-0.0196 -0.0343,-0.0327 -0.0469,-0.0566 -0.10528,-0.20049 -0.12801,-0.52254 -0.0195,-1.01368 0.15345,-0.69474 0.92921,-4.16982 1.72461,-7.7207 1.36376,-6.08828 2.07028,-9.51301 2.4707,-11.90625 0.045,-0.21515 0.27477,-1.27301 0.29492,-1.37305 0.0566,-0.28125 0.043,-0.52026 0.0547,-0.77929 0.065,-0.83572 -0.008,-1.28878 -0.23438,-1.31641 -0.002,-10e-4 -0.002,-0.009 -0.004,-0.01 -0.003,-0.002 -0.0111,0.009 -0.0137,0.008 -0.10077,-0.004 -0.25462,0.0902 -0.40821,0.20898 -0.26733,0.21763 -0.62566,0.60353 -1.09375,1.19141 -0.17384,0.21071 -0.24566,0.23208 -0.44531,0.48437 -0.37316,0.47157 -1.16017,1.73676 -1.66406,2.45508 -0.43774,0.63027 -0.87911,1.28218 -1.375,2.02539 -1.75731,2.63909 -3.72261,5.74585 -6.0625,9.59571 -6.3905,10.38059 -13.41718,22.62196 -16.37696,29.09179 -1.07923,2.14181 -2.21953,4.38259 -2.39453,4.45703 -0.17356,-0.0734 -1.31215,-2.30676 -2.38086,-4.42578 -2.9478,-6.45314 -9.97603,-18.70184 -16.37109,-29.0918 -2.33463,-3.84184 -4.29916,-6.94642 -6.05664,-9.58789 -0.51469,-0.77174 -0.97358,-1.45117 -1.42578,-2.10156 -0.4947,-0.70438 -1.27298,-1.95338 -1.64063,-2.41797 -0.19964,-0.25229 -0.27147,-0.27366 -0.44531,-0.48437 -0.47084,-0.59132 -0.82808,-0.9768 -1.0957,-1.19336 -0.15296,-0.11804 -0.30581,-0.21116 -0.40625,-0.20703 -0.003,10e-4 -0.0112,-0.009 -0.0137,-0.008 -0.002,10e-4 -0.002,0.009 -0.004,0.01 -0.22541,0.0276 -0.29749,0.4684 -0.23438,1.29492 0.0108,0.26507 -0.004,0.51181 0.0547,0.80078 0.0206,0.10247 0.25604,1.1832 0.30274,1.40625 0.40307,2.39697 1.10754,5.81365 2.46484,11.87305 0.7954,3.55088 1.57116,7.02596 1.72461,7.7207 0.10848,0.49114 0.0859,0.81306 -0.0195,1.01368 -0.0125,0.0238 -0.0316,0.037 -0.0469,0.0566 -0.082,0.10576 -0.24638,0.0855 -0.40234,0.0781 -0.29754,-0.0284 -0.66352,-0.17241 -1.1582,-0.56836 -0.0337,-0.0259 -0.0572,-0.0291 -0.0918,-0.0566 -0.60677,-0.50349 -1.32564,-1.25878 -2.07813,-2.17773 -0.96042,-1.20016 -2.5259,-3.70334 -4.14843,-6.51172 -0.93234,-1.6526 -1.80738,-3.15875 -2.72461,-4.88672 -4.04781,-7.62559 -10.24292,-17.76547 -19.03321,-31.14844 -2.20595,-3.35849 -3.04622,-4.51307 -4.21875,-6.20898 -1.47975,-2.16154 -3.01116,-4.36799 -3.39257,-4.53906 -0.0374,-0.0226 -0.1128,-0.11566 -0.14454,-0.12696 -0.0338,-0.004 -0.0686,0.005 -0.0957,0.0156 -0.13585,0.0145 -0.22283,0.13418 -0.25391,0.40429 -0.002,0.0205 0.0118,0.17189 0.01,0.19532 -0.003,0.0255 -0.015,0.0182 -0.0176,0.0449 -0.009,0.0946 0.0874,1.08079 0.0879,1.25976 0.0156,1.61287 0.23941,4.71741 0.63477,9.04883 0.20949,2.3993 0.42955,4.52521 0.70703,7.35547 0.11491,1.11453 0.20247,2.00294 0.32227,3.11719 0.40227,3.96328 0.76378,7.84878 1.20117,11.60937 l 0.74218,6.39258 4.65626,6.3418 c 5.10328,6.95132 11.15522,14.87649 16.38281,21.54101 0.0866,0.1111 0.16752,0.22336 0.2539,0.33399 1.06073,1.35845 1.32264,1.78999 2.01953,2.72656 1.10536,1.46507 2.2882,3.02484 2.34961,3.24609 0.0654,0.11615 0.057,0.14821 0.0879,0.22461 -0.18671,0.002 -2.71753,-1.62398 -6.20507,-3.92578 -3.48769,-2.4013 -7.57313,-5.20877 -15.9336,-10.79297 -6.12647,-4.09204 -11.14612,-7.53301 -14.75976,-10.09961 -0.63409,-0.4453 -0.6735,-0.49714 -1.21094,-0.8789 -2.83633,-2.04489 -4.65892,-3.45693 -4.83398,-3.8125 -0.0378,-0.0876 -0.0925,-0.33898 -0.13477,-0.4668 -0.27907,-0.9018 -0.82868,-3.62143 -1.31055,-6.65234 -0.16923,-1.06451 -0.41519,-2.13568 -0.64453,-3.20703 -0.10363,-0.49468 -0.18896,-1.11368 -0.3164,-1.58203 -0.36889,-1.53115 -0.74802,-2.82973 -1.04883,-3.50977 -0.32048,-0.72451 -1.94556,-3.27091 -4.11133,-6.53125 -0.43138,-0.65288 -1.14183,-1.67156 -1.64648,-2.41406 -1.53146,-2.27123 -3.02302,-4.50273 -4.8125,-7.06055 -5.22041,-7.46183 -10.2997,-14.89458 -11.28711,-16.51563 -0.98744,-1.62104 -2.02632,-2.94726 -2.3086,-2.94726 z m -80.95898,56.9375 c -0.21668,8.7e-4 -0.3651,0.0565 -0.46485,0.15625 -0.008,0.008 10e-4,0.0785 -0.006,0.0898 -0.20534,0.30332 -0.0489,1.70091 0.38477,4.01758 0.49313,2.69931 1.37497,6.80196 2.72461,12.70117 1.65108,7.21684 2.81192,12.29822 3.79102,16.12891 1.12362,4.94498 1.98185,7.49025 3.36914,9.41797 0.3283,0.49816 0.70242,0.90641 1.08203,1.29687 0.14404,0.15739 0.24256,0.31828 0.39843,0.47852 4.60597,4.73473 22.35895,14.91091 43.33008,24.83789 7.26196,3.43756 16.67181,8.05893 20.91016,10.26953 0.85421,0.44553 1.52451,0.74315 2.33398,1.14453 0.56946,0.28778 3.73505,1.98949 3.92969,2.07422 0.66165,0.28805 1.31296,0.40448 1.94336,0.53906 0.14982,0.0423 0.61336,0.26172 0.68555,0.26172 0.0668,0 0.0789,-0.0284 0.13476,-0.0332 0.009,3.4e-4 0.034,0.0115 0.043,0.0117 0.96816,0.0199 0.9898,-0.0716 0.2207,-0.96094 -0.55172,-0.63802 -5.17601,-6.72288 -7.14257,-9.22266 -8.27058,-10.57395 -16.70429,-21.43772 -24.19532,-31.39843 -10.77201,-14.32342 -14.50467,-18.87124 -22.61718,-24.35938 -0.003,-0.002 -0.008,-0.006 -0.0117,-0.008 -0.21359,-0.14433 -0.57483,-0.34635 -0.79492,-0.49219 -2.54447,-1.68879 -5.37561,-3.43437 -9.11329,-5.6543 -8.15254,-4.84205 -13.05628,-7.66982 -16.23632,-9.33789 -0.41475,-0.21807 -0.75901,-0.37894 -1.11133,-0.55468 -0.86521,-0.42917 -1.66219,-0.80153 -2.19727,-0.99805 -0.55421,-0.20495 -1.10816,-0.40739 -1.39062,-0.40625 z m 370.84179,0 c -0.005,-2e-5 -0.0185,0.008 -0.0234,0.008 -0.28679,-1.4e-4 -0.85108,0.20592 -1.41211,0.41406 -0.46586,0.17567 -1.15014,0.49664 -1.85352,0.83985 -0.48053,0.23356 -1.01625,0.49235 -1.62695,0.81445 -2.53008,1.34081 -7.16241,4.04865 -12.51563,7.20508 -1.48314,0.87369 -1.74948,0.97361 -3.5039,2.01562 -3.59922,2.1377 -6.29376,3.81062 -8.77539,5.44532 -0.32392,0.21296 -0.83845,0.50329 -1.14844,0.71289 -8.10972,5.48671 -11.8429,10.03423 -22.61328,24.35547 -7.48332,9.95047 -15.90788,20.80164 -24.16992,31.36523 -1.97735,2.51383 -6.61236,8.61561 -7.16602,9.25586 -0.7691,0.88938 -0.74941,0.98083 0.21875,0.96094 0.009,-1.9e-4 0.0337,-0.0114 0.043,-0.0117 0.056,0.005 0.0677,0.0332 0.13477,0.0332 0.0719,0 0.53452,-0.21774 0.68359,-0.25976 0.63127,-0.13469 1.28465,-0.25254 1.94726,-0.54102 0.1959,-0.0853 3.37964,-1.79701 3.95508,-2.08789 0.80082,-0.39729 1.46248,-0.69057 2.30664,-1.13086 4.23835,-2.2106 13.64821,-6.83197 20.91016,-10.26953 20.97115,-9.92699 38.72411,-20.10315 43.33008,-24.83789 0.15137,-0.1556 0.24652,-0.31197 0.38672,-0.46485 0.38567,-0.39509 0.76485,-0.81079 1.09765,-1.3164 1.38433,-1.92555 2.24338,-4.47025 3.36524,-9.40625 0.97928,-3.83104 2.14129,-8.91533 3.79297,-16.13477 1.34963,-5.8992 2.22983,-10.00166 2.72265,-12.70117 0.43368,-2.31678 0.59019,-3.71439 0.38477,-4.01758 -0.007,-0.0114 0.002,-0.0816 -0.006,-0.0898 -0.0998,-0.0998 -0.24817,-0.15538 -0.46485,-0.15625 z M 390.04676,581.8939 c 0.7208,0.19155 1.79259,0.80536 2.92383,1.76562 1.18219,1.00351 6.89523,4.85529 12.69531,8.56055 10.75626,6.8714 13.6836,8.9817 13.6836,9.85742 0,0.25359 -1.88436,1.01829 -4.20117,1.74609 -0.31543,0.0994 -0.56667,0.16231 -0.89844,0.26172 -2.49884,0.73251 -5.73551,1.53017 -7.41992,1.78907 -1.12375,0.17272 -1.77324,0.16024 -2.47461,0.13281 -0.46326,-0.0256 -0.92248,-0.0781 -1.38282,-0.18164 -0.73772,-0.18722 -1.4418,-0.41732 -2.63671,-0.98242 -1.31065,-0.61984 -2.25249,-1.19022 -3.18164,-1.78125 -0.58006,-0.35818 -1.09848,-0.71525 -1.54883,-1.07032 -0.27257,-0.23381 -0.56946,-0.45404 -0.8086,-0.71093 -0.7625,-0.81914 -1.35132,-1.81465 -1.87304,-3.03321 -0.75868,-1.87882 -1.37706,-4.39283 -2.20313,-8.70703 -0.63703,-3.32689 -1.30175,-6.4214 -1.47656,-6.87695 -0.13974,-0.36415 -0.11651,-0.60303 0.0293,-0.72852 0.0809,-0.0667 0.27224,-0.0225 0.41992,-0.0234 0.12263,-0.002 0.19141,-0.0599 0.35351,-0.0176 z m 108.02344,0 c 0.16161,-0.0422 0.22924,0.016 0.35156,0.0176 0.14806,7.8e-4 0.33903,-0.0435 0.41993,0.0234 0.14562,0.12551 0.16903,0.36437 0.0293,0.72852 -0.17481,0.45555 -0.83758,3.55005 -1.47461,6.87695 -0.82455,4.30629 -1.44241,6.81677 -2.19922,8.69531 -0.52275,1.22443 -1.11398,2.22306 -1.8789,3.04493 -0.23772,0.25541 -0.53198,0.47446 -0.80274,0.70703 -0.45435,0.35868 -0.97783,0.71819 -1.56445,1.08008 -0.92691,0.58869 -1.86398,1.15777 -3.16992,1.77539 -1.19385,0.56459 -1.89742,0.79316 -2.63477,0.98046 -0.46474,0.10467 -0.92671,0.15839 -1.39453,0.1836 -0.69951,0.0264 -1.34725,0.0393 -2.4668,-0.13281 -1.68437,-0.25889 -4.91925,-1.05656 -7.41796,-1.78907 -0.3318,-0.0994 -0.583,-0.16237 -0.89844,-0.26172 -2.31695,-0.72771 -4.20313,-1.4925 -4.20313,-1.74609 0,-0.87572 2.9293,-2.98603 13.68555,-9.85742 5.80007,-3.70526 11.51312,-7.55704 12.69531,-8.56055 1.13125,-0.96026 2.20304,-1.57407 2.92383,-1.76562 z m -227.36328,44.55273 c -0.12647,0.0485 -0.19678,0.12957 -0.25781,0.2168 -0.003,0.003 -0.0722,-0.0247 -0.0742,-0.0215 -9.1e-4,10e-4 0.0319,0.0548 0.0312,0.0566 -0.19043,0.3647 0.11075,1.09369 1.05273,2.7168 1.81413,3.12587 7.73856,12.41175 13.64649,21.53516 3.76093,5.91574 6.86663,10.66577 9.34179,14.31445 l 3.66993,5.55274 7.42382,3.30664 c 13.6912,6.09811 10.76285,4.77746 19.97071,8.875 11.85514,5.35147 24.32259,10.91549 33.97461,15.09961 1.35605,0.59779 11.45777,5.10079 11.58203,5.14843 0.73092,0.28027 1.30183,0.38073 1.68945,0.32422 0.0106,10e-4 0.20687,0.0879 0.21484,0.0879 0.62622,0 0.83735,-0.25428 0.58204,-0.70117 -0.0731,-0.12804 -0.55488,-0.69084 -0.67774,-0.87109 -0.39845,-0.64108 -1.42984,-1.94867 -2.8418,-3.65039 -2.22803,-2.68222 -5.4528,-6.44931 -10.45507,-12.18164 -12.03716,-13.79396 -14.00965,-16.21888 -13.55274,-16.67579 3.6e-4,-3.2e-4 0.005,3.3e-4 0.006,0 0.20962,-0.20046 2.81115,0.0927 5.79297,0.6543 0.95477,0.17983 1.5434,0.17304 2.41797,0.30664 4.06619,0.67662 6.50075,0.959 7.73633,0.64844 0.89823,-0.0818 1.60469,-0.22774 1.88086,-0.50391 0.0806,-0.0806 0.10736,-0.1675 0.14843,-0.25195 l 0.60352,-0.26172 -1.42383,-1.30273 c -0.14706,-0.15174 -0.16246,-0.23228 -0.35547,-0.41211 -0.20581,-0.11906 -0.53551,-0.28093 -0.74804,-0.40235 -2.14215,-1.63681 -10.06423,-5.57781 -19.94532,-10.26953 -5.73209,-2.78039 -11.85929,-5.56102 -18.13671,-8.4414 -1.38309,-0.62743 -2.45976,-1.13924 -3.85938,-1.76954 -20.48721,-9.31434 -40.4336,-17.85128 -47.11328,-20.17382 -0.55461,-0.21205 -1.84917,-0.77847 -2.32422,-0.95313 z m 346.70312,0 c -0.47454,0.17448 -1.76833,0.73939 -2.32226,0.95117 -6.67087,2.31855 -26.61017,10.85374 -47.09766,20.16797 -1.4506,0.65323 -2.56535,1.1839 -3.99804,1.83399 -6.19766,2.84467 -12.25025,5.58883 -17.91602,8.33593 -9.91391,4.7057 -17.86901,8.66501 -20.0293,10.31055 -0.21748,0.12421 -0.55516,0.28841 -0.76562,0.41016 -0.19562,0.18227 -0.21098,0.26457 -0.35938,0.41797 l -1.41796,1.29687 0.60351,0.26172 c 0.0411,0.0844 0.0678,0.17134 0.14844,0.25195 0.2763,0.27631 0.98197,0.42209 1.88086,0.50391 1.23422,0.31016 3.66691,0.0286 7.72461,-0.64648 0.87837,-0.13401 1.47026,-0.1279 2.42968,-0.3086 2.98183,-0.56163 5.5814,-0.85476 5.79102,-0.6543 3.3e-4,3.2e-4 0.006,-3.1e-4 0.006,0 0.45691,0.45691 -1.51361,2.88182 -13.55078,16.67579 -5.00235,5.73242 -8.22905,9.49979 -10.45703,12.18164 -1.41754,1.70836 -2.44669,3.01564 -2.84375,3.65625 -0.12178,0.17878 -0.60114,0.73798 -0.67383,0.86523 -0.25531,0.44689 -0.0442,0.70117 0.58203,0.70117 0.008,0 0.20423,-0.0867 0.21484,-0.0879 0.38775,0.0565 0.95671,-0.044 1.6875,-0.32422 0.12201,-0.0468 10.06394,-4.47778 11.37305,-5.05468 9.67398,-4.19191 22.2801,-9.81851 34.2168,-15.20704 9.20018,-4.09394 6.26998,-2.77288 19.93945,-8.86132 l 7.42188,-3.30664 3.61328,-5.4668 c 2.48573,-3.66002 5.63443,-8.47843 9.44336,-14.4707 5.89267,-9.1012 11.79221,-18.34723 13.60156,-21.46485 0.94212,-1.62334 1.24292,-2.35416 1.05273,-2.71875 -6.6e-4,-0.002 0.0321,-0.0532 0.0312,-0.0547 -0.002,-0.003 -0.0693,0.0222 -0.0723,0.0195 -0.0609,-0.0876 -0.13099,-0.16618 -0.25782,-0.21485 z m -173.35156,22.75781 c 18.62478,10e-4 24.13282,0.15621 24.13282,0.6875 0,2.04719 -4.69738,24.58478 -5.04297,24.19532 -0.17466,-0.19682 -0.88708,-3.69239 -1.54297,-6.98828 -0.18696,-0.9482 -0.23491,-1.00004 -0.42969,-2.03516 l -1.15039,-6.11524 -0.45313,-2.44726 h -0.008 -15.50195 -0.008 -15.50391 -0.008 l -0.42188,2.2832 -1.18164,6.2793 c -0.20505,1.08968 -0.25533,1.15112 -0.45117,2.14258 -0.64373,3.22028 -1.34951,6.68706 -1.52148,6.88086 -0.34559,0.38946 -5.04297,-22.14813 -5.04297,-24.19532 0,-0.53129 5.51,-0.68604 24.13476,-0.6875 z m -24.44726,49.10157 c 0.17937,-0.0498 2.492,3.11451 5.25586,7.20507 l 3.70703,5.48829 1.35937,2.02929 0.0137,0.004 0.004,0.004 3.54102,0.78515 c 2.29827,0.50986 6.43113,0.76428 10.56445,0.76367 h 0.002 c 4.13314,8.4e-4 8.26618,-0.25381 10.56446,-0.76367 l 3.54101,-0.78515 0.002,-0.004 0.0176,-0.004 1.50977,-2.25586 3.55469,-5.26172 c 2.76251,-4.08858 5.07443,-7.24782 5.25586,-7.20117 0.11336,0.23602 -0.50819,4.57462 -1.42383,9.87305 -0.58253,3.37083 -1.00346,5.43376 -1.40039,7.08594 -0.27602,1.22971 -0.44524,1.71029 -0.62696,2.27929 -0.23057,0.62806 -0.46619,1.10267 -0.71093,1.38477 -0.28184,0.25692 -0.58912,0.46707 -0.93946,0.67578 -1.31708,0.55451 -4.84107,0.63526 -18.1582,0.7207 -0.44021,-10e-4 -0.73879,0.006 -1.18555,0.004 -0.4475,0.002 -0.74656,-0.005 -1.1875,-0.004 -13.29815,-0.0853 -16.83348,-0.16434 -18.15429,-0.71679 -0.35283,-0.20984 -0.66197,-0.42278 -0.94532,-0.68164 -0.24344,-0.28127 -0.47583,-0.75318 -0.70507,-1.37696 -0.18324,-0.57274 -0.35356,-1.05494 -0.63282,-2.30078 -0.39596,-1.65156 -0.81522,-3.70684 -1.39648,-7.07031 -0.916,-5.30048 -1.53975,-9.64413 -1.42578,-9.87695 z m -80.69532,15.47461 c -0.32557,0.0759 -0.33182,0.31239 -0.1621,0.64843 0.009,0.33761 0.36383,0.8119 1.04687,1.43946 0.37251,0.34224 2.70457,2.10315 3.58984,2.82226 2.77476,2.2675 6.55212,5.25834 12.76368,10.12891 6.0615,4.75292 9.5827,7.41461 13.07812,9.48633 0.11441,0.0733 0.80118,0.60396 0.87891,0.64843 0.33349,0.19081 1.87061,0.79134 2.48828,1.0879 2.46894,1.22694 5.2796,2.46475 9.13476,3.99023 0.24923,0.0991 0.34796,0.16231 0.59571,0.25977 0.837,0.32923 2.22273,0.89604 3.23242,1.29687 5.67078,2.26013 12.63243,5.06796 16.94531,6.87891 6.59183,2.76786 9.94632,3.96036 11.19531,3.91796 0.41841,0.018 0.60743,-0.0919 0.60743,-0.32421 0,-0.003 -0.0329,-0.0454 -0.0332,-0.0488 0.002,-0.0167 0.0195,-0.0232 0.0195,-0.041 0,-0.25916 -1.22865,-1.92679 -3.0957,-4.30273 -0.32748,-0.41674 -0.83109,-1.02114 -1.19726,-1.48047 -5.97418,-7.54527 -16.52226,-20.06745 -19.95313,-23.40039 -1.0161,-0.9871 -1.79173,-1.65372 -2.7793,-2.25 -0.68313,-0.44177 -1.72273,-0.85253 -2.62109,-1.15235 -0.23087,-0.077 -0.44215,-0.16801 -0.70313,-0.24804 -0.42284,-0.12373 -0.61889,-0.26697 -1.14062,-0.40039 -0.82153,-0.21009 -2.76207,-0.61687 -3.80469,-0.86914 -3.7845,-0.9244 -8.7237,-2.05461 -17.18359,-3.94532 -0.42334,-0.0946 -0.55508,-0.11194 -0.96485,-0.20312 -1.0293,-0.2229 -1.34649,-0.28166 -2.3496,-0.49609 -7.17087,-1.57474 -12.64488,-2.70842 -15.625,-3.10938 -0.1182,-0.0156 -0.85187,-0.17941 -0.9375,-0.1875 -1.40976,-0.13313 -2.50083,-0.26884 -3.0254,-0.14648 z m 210.28516,0 c -0.52457,-0.12236 -1.61563,0.0134 -3.02539,0.14648 -0.19726,0.0186 -1.79535,0.37206 -2.16016,0.42969 -3.17165,0.47701 -7.99402,1.43473 -15.13671,3.01172 -0.57953,0.12445 -0.79353,0.16981 -1.38086,0.29687 -0.47858,0.1064 -0.70391,0.14668 -1.20118,0.25781 -8.43179,1.88443 -13.36667,3.01431 -17.15039,3.9375 -1.05295,0.2547 -3.00755,0.66512 -3.83593,0.87696 -0.51987,0.13294 -0.7151,0.27516 -1.13672,0.39843 -0.2674,0.082 -0.4829,0.1751 -0.71875,0.25391 -0.89064,0.29791 -1.92493,0.70641 -2.60352,1.14453 -0.99069,0.59695 -1.76913,1.26498 -2.78711,2.25391 -3.39048,3.29372 -13.69795,15.52638 -19.71094,23.10156 -2.57154,3.21786 -4.53515,5.76865 -4.53515,6.08203 0,0.0189 0.0196,0.0254 0.0215,0.043 -2.7e-4,0.003 -0.0332,0.0438 -0.0332,0.0469 0,0.23277 0.18937,0.3427 0.60937,0.32421 1.25322,0.0388 4.60921,-1.15415 11.19141,-3.91796 4.31289,-1.81095 11.27434,-4.61883 16.94531,-6.87891 1.00966,-0.40078 2.39542,-0.96764 3.23242,-1.29687 0.24776,-0.0975 0.34648,-0.16062 0.59571,-0.25977 3.85806,-1.52665 6.67035,-2.76601 9.14062,-3.99414 0.6155,-0.29563 2.14978,-0.89367 2.48243,-1.08399 0.076,-0.0435 0.74837,-0.56183 0.85937,-0.63281 3.50217,-2.07368 7.02414,-4.73962 13.09766,-9.50195 5.60537,-4.39526 8.18583,-6.47086 10.95703,-8.70899 1.64035,-1.30641 4.83652,-3.72771 5.39648,-4.24218 0.55496,-0.50987 0.82494,-0.88946 0.94531,-1.20899 0.37937,-0.51661 0.34501,-0.78476 -0.0586,-0.8789 z" sodipodi:nodetypes="ccsccccccscccccccccscsccccccscscccscccscsccccsscscsccscssccsscsccccsssssccccsscsccsscsccscscssccccscccccssssccccsccssssscsccccssccscsssccccscsccssscccccsccccccccccssscccsscssccscsccscssscccccccccccccsssccssccccccscccccccscscscccscscccccscscsccscccsccsssscscccscscccsscscscsccsccscscccccscsccscccccccccsccsccscccccccccccscssscccscccccccccsccscscccccscsccsccscssccsccsccscscssssssccscccsccscscscccccscscccscsccscsssccsccsccccsccccscccccccccccccccsscccccccsscsccccccscccccccccsccccccccsssccccccsscccccccccccccccsccccsccccsccsccsscccsccsccccsscscsccscssccsccccccsccccsccscsscscscssscccscccccssssccsccsccscssccsssccsscsccsccsccsssssscccscccsccscssccsscsccscccccccccssscccccccccsccsscsccsscsccccccscscsssssccccccccccscsssscccccccsscccccccscccccccccccsccscscscsccscscscsscscscscscccssssscccscscccscscscscsccscscscss"/>
  </g>
</svg>